# Blender v2.90.1 OBJ File: 'ne_volk_a_golova_ego.blend'
# www.blender.org
mtllib ne_volk_a_golova_ego.mtl
o Cube
v 0.801202 2.076829 -1.226496
v 0.801202 0.062067 -1.226496
v 0.801202 2.076829 1.178779
v 0.801202 0.062067 1.178779
v -0.808101 2.076829 -1.226496
v -0.808101 0.062067 -1.226496
v -0.808101 2.076829 1.178779
v -0.808101 0.062067 1.178779
vt 0.140625 0.875000
vt 0.140625 1.000000
vt 0.062500 1.000000
vt 0.062500 0.875000
vt 0.062500 0.687500
vt -0.000000 0.875000
vt -0.000000 0.687500
vt 0.218750 0.687500
vt 0.312500 0.687500
vt 0.312500 0.875000
vt 0.218750 0.875000
vt 0.250000 0.875000
vt 0.250000 1.000000
vt 0.171875 1.000000
vt 0.171875 0.875000
vt 0.156250 0.687500
vt 0.156250 0.875000
vt 0.218750 0.687500
vt 0.218750 0.875000
vn 0.0000 1.0000 0.0000
vn 0.0000 0.0000 1.0000
vn -1.0000 0.0000 0.0000
vn 0.0000 -1.0000 0.0000
vn 1.0000 0.0000 0.0000
vn 0.0000 0.0000 -1.0000
g Cube_Cube_Material.002
usemtl Material.002
s off
f 1/1/1 5/2/1 7/3/1 3/4/1
f 4/5/2 3/4/2 7/6/2 8/7/2
f 8/8/3 7/9/3 5/10/3 6/11/3
f 6/12/4 2/13/4 4/14/4 8/15/4
f 2/16/5 1/17/5 3/4/5 4/5/5
f 6/18/6 5/19/6 1/17/6 2/16/6
o Cube.001
v 0.785520 1.067522 0.430732
v 0.785520 1.067522 -0.499065
v 0.785520 0.157162 0.430732
v 0.785520 0.157162 -0.499065
v 2.025250 1.067522 0.430732
v 2.025250 1.067522 -0.499065
v 2.025250 0.157162 0.430732
v 2.025250 0.157162 -0.499065
vt 0.375000 0.000000
vt 0.625000 0.000000
vt 0.625000 0.250000
vt 0.375000 0.250000
vt 0.109375 0.562500
vt 0.156250 0.562500
vt 0.156250 0.687500
vt 0.109375 0.687500
vt 0.062500 0.468750
vt 0.109375 0.468750
vt 0.109375 0.562500
vt 0.062500 0.562500
vt 0.109375 0.687500
vt 0.062500 0.687500
vt -0.000000 0.468750
vt -0.000000 0.562500
vt 0.171875 0.468750
vt 0.171875 0.562500
vn -1.0000 0.0000 0.0000
vn 0.0000 -1.0000 0.0000
vn 1.0000 0.0000 0.0000
vn 0.0000 1.0000 0.0000
vn 0.0000 0.0000 1.0000
vn 0.0000 0.0000 -1.0000
g Cube.001_Cube.001_Material.001
usemtl Material.001
s off
f 9/20/7 10/21/7 12/22/7 11/23/7
f 11/24/8 12/25/8 16/26/8 15/27/8
f 15/28/9 16/29/9 14/30/9 13/31/9
f 13/31/10 14/30/10 10/32/10 9/33/10
f 11/34/11 15/28/11 13/31/11 9/35/11
f 16/29/12 12/36/12 10/37/12 14/30/12
o Cube.002
v -0.383581 2.076829 1.103066
v -0.383581 2.509280 1.103066
v -0.383581 2.076829 0.238164
v -0.383581 2.509280 0.238164
v 0.048870 2.076829 1.103066
v 0.048870 2.509280 1.103066
v 0.048870 2.076829 0.238164
v 0.048870 2.509280 0.238164
vt 0.312500 0.468750
vt 0.343750 0.468750
vt 0.343750 0.531250
vt 0.312500 0.531250
vt 0.250000 0.468750
vt 0.265625 0.468750
vt 0.265625 0.531250
vt 0.250000 0.531250
vt 0.296875 0.468750
vt 0.296875 0.531250
vt 0.265625 0.531250
vt 0.265625 0.468750
vt 0.296875 0.468750
vt 0.312500 0.468750
vt 0.312500 0.531250
vt 0.296875 0.531250
vt 0.296875 0.531250
vt 0.328125 0.531250
vt 0.328125 0.562500
vt 0.296875 0.562500
vt 0.296875 0.531250
vt 0.296875 0.562500
vt 0.265625 0.562500
vn -1.0000 0.0000 0.0000
vn 0.0000 0.0000 -1.0000
vn 1.0000 0.0000 0.0000
vn 0.0000 0.0000 1.0000
vn 0.0000 -1.0000 0.0000
vn 0.0000 1.0000 0.0000
g Cube.002_Cube.002_Material.004
usemtl Material.004
s off
f 17/38/13 18/39/13 20/40/13 19/41/13
f 19/42/14 20/43/14 24/44/14 23/45/14
f 23/46/15 24/47/15 22/48/15 21/49/15
f 21/50/16 22/51/16 18/52/16 17/53/16
f 19/54/17 23/55/17 21/56/17 17/57/17
f 24/44/18 20/58/18 18/59/18 22/60/18
o Cube.003
v -0.383581 2.076829 -0.200495
v -0.383581 2.941731 -0.200495
v -0.383581 2.076829 -1.065397
v -0.383581 2.941731 -1.065397
v 0.048870 2.076829 -0.200495
v 0.048870 2.941731 -0.200495
v 0.048870 2.076829 -1.065397
v 0.048870 2.941731 -1.065397
vt 0.343750 0.468750
vt 0.343750 0.531250
vt 0.312500 0.531250
vt 0.312500 0.468750
vt 0.250000 0.468750
vt 0.265625 0.468750
vt 0.265625 0.531250
vt 0.250000 0.531250
vt 0.296875 0.468750
vt 0.296875 0.531250
vt 0.265625 0.531250
vt 0.265625 0.468750
vt 0.296875 0.468750
vt 0.312500 0.468750
vt 0.312500 0.531250
vt 0.296875 0.531250
vt 0.296875 0.531250
vt 0.328125 0.531250
vt 0.328125 0.562500
vt 0.296875 0.562500
vt 0.296875 0.531250
vt 0.296875 0.562500
vt 0.265625 0.562500
vn -1.0000 0.0000 0.0000
vn 0.0000 0.0000 -1.0000
vn 1.0000 0.0000 0.0000
vn 0.0000 0.0000 1.0000
vn 0.0000 -1.0000 0.0000
vn 0.0000 1.0000 0.0000
g Cube.003_Cube.003_Material.003
usemtl Material.003
s off
f 25/61/19 26/62/19 28/63/19 27/64/19
f 27/65/20 28/66/20 32/67/20 31/68/20
f 31/69/21 32/70/21 30/71/21 29/72/21
f 29/73/22 30/74/22 26/75/22 25/76/22
f 27/77/23 31/78/23 29/79/23 25/80/23
f 32/67/24 28/81/24 26/82/24 30/83/24
